# xmcd
#
# Track frame offsets: 
# 150
# 16015
# 37442
# 53370
# 69755
# 86867
# 105772
# 122557
# 138600
# 156137
# 173775
# 189520
# 207300
# 227617
# 243737
# 261602
# 277787
# 305900
#
# Disc length: 4457 seconds
# Submitted via: tkcNetwork 1.0
# Revision: 0
# Processed by: cddbd v1.5.2PL0 Copyright (c) Steve Scherf et al.
#
DISCID=f8116712
DTITLE=OMD - Orchestral Manouevres in the Dark - The Best of OMD
DYEAR=1988
DGENRE=Pop
TTITLE0=Electricity
TTITLE1=Messages
TTITLE2=Enola Gay
TTITLE3=Souvenir
TTITLE4=Joan Of Arc
TTITLE5=Maid Of Orleans
TTITLE6=Telegraph
TTITLE7=Tesla Girls
TTITLE8=Locomotion
TTITLE9=Talking Loud And Clear
TTITLE10=So In Love
TTITLE11=Secret
TTITLE12=If You Leave
TTITLE13=Forever Live And Die
TTITLE14=Dreaming
TTITLE15=Genetic Engineering
TTITLE16=We Love You (12_ Version)
TTITLE17=La Femme Accident (12_ Version)
EXTD=
EXTT0=
EXTT1=
EXTT2=
EXTT3=
EXTT4=
EXTT5=
EXTT6=
EXTT7=
EXTT8=
EXTT9=
EXTT10=
EXTT11=
EXTT12=
EXTT13=
EXTT14=
EXTT15=
EXTT16=
EXTT17=
PLAYORDER=
